<svg width="1000" height="1000" viewBox="0 0 1000 1000" fill="none" xmlns="http://www.w3.org/2000/svg">
<rect x="372" y="372" width="256" height="256" rx="49" fill="#4F4F4F"/>
<path d="M424.719 459V444.281H440.25V434.406H424.719V426.594H441.906V416.344H411.594V459H424.719ZM455.406 459.469C460.375 459.469 462.875 457.156 463.688 455.062H464.312V459H476.125V437C476.125 427.969 469.25 424.844 460.656 424.844C448.562 424.844 445.531 431.375 445.406 436.625H457.219C457.219 434.938 458.5 433.688 460.531 433.688C462.438 433.688 463.688 434.719 463.688 436.5V438.969H456.469C448.562 438.969 444.219 442.969 444.219 449.25C444.219 455.781 448.812 459.469 455.406 459.469ZM460.031 451.094C458.281 451.094 456.594 450.031 456.594 448.125C456.594 446.312 458.156 445.156 460.438 445.156H463.688V448.156C463.688 449.969 461.844 451.094 460.031 451.094ZM492.531 425.031C485.219 425.031 480.531 430.531 480.531 440.875V443.375C480.531 453.688 485.219 459.281 492.531 459.281C497.25 459.281 500.75 457.031 501.938 453.594H502.531V459H515.25V414.094H502.531V430.656H501.938C500.75 427.219 497.25 425.031 492.531 425.031ZM498.094 434.594C500.625 434.594 502.531 436.719 502.531 441.25V443.094C502.531 447.625 500.625 449.781 498.094 449.781C495.562 449.781 493.688 447.625 493.688 443.094V441.25C493.688 436.75 495.562 434.594 498.094 434.594ZM536.969 459.656C548.375 459.656 552.688 452.469 552.75 447.312H541.5C541.469 449.438 539.406 450.656 536.906 450.656C534.594 450.656 532.25 449.125 532.25 446.031V444.594H552.844V441.062C552.844 430.781 546.219 424.656 536.5 424.656C527.625 424.656 519.969 429.719 519.969 441.062V443.125C519.969 454.5 527.094 459.656 536.969 459.656ZM532.25 438.031C532.25 435.219 534.062 433.312 536.625 433.312C539.188 433.312 540.812 435.219 540.812 438.031H532.25ZM424.719 523V480.344H411.594V523H424.719ZM431.281 523H443.938V504.469C443.938 500.719 446.031 499.188 448.062 499.188C449.625 499.188 452.094 499.969 452.094 504.375V523H464.75V501.188C464.75 492.938 460.531 488.844 453.844 488.844C447.938 488.844 444.938 492.406 444.125 494.969H443.5V489.312H431.281V523ZM420.969 587L422.875 578.938H434.531L436.375 587H450.375L437.562 544.344H420.938L408 587H420.969ZM429.125 555.188L432.438 569.719H425.031L428.469 555.188H429.125ZM453.656 587H466.344V542.094H453.656V587ZM482.344 587.469C487.312 587.469 489.812 585.156 490.625 583.062H491.25V587H503.062V565C503.062 555.969 496.188 552.844 487.594 552.844C475.5 552.844 472.469 559.375 472.344 564.625H484.156C484.156 562.938 485.438 561.688 487.469 561.688C489.375 561.688 490.625 562.719 490.625 564.5V566.969H483.406C475.5 566.969 471.156 570.969 471.156 577.25C471.156 583.781 475.75 587.469 482.344 587.469ZM486.969 579.094C485.219 579.094 483.531 578.031 483.531 576.125C483.531 574.312 485.094 573.156 487.375 573.156H490.625V576.156C490.625 577.969 488.781 579.094 486.969 579.094ZM508.719 587H521.844V570.344C521.844 565.844 523.812 563.25 528.562 563.25C530.312 563.25 532.031 563.438 532.812 563.781V553.219C532.188 552.969 531.094 552.844 529.25 552.844C524.969 552.844 522.469 556.375 522.031 558.719H521.406V553.312H508.719V587ZM536.531 587H549.188V567.969C549.188 563.969 550.969 562.875 552.906 562.875C554.5 562.875 556.625 563.625 556.625 567.969V587H568.625V568.031C568.625 564.25 570.25 562.875 572.344 562.875C574 562.875 576.062 563.719 576.062 567.969V587H588.719V563.812C588.719 557.406 585 552.844 578.312 552.844C572.406 552.844 569 556.375 568.188 559.156H567.688C566.781 555.5 563.75 552.844 558.688 552.844C552.75 552.844 550.031 556.531 549.375 559.219H548.75V553.312H536.531V587Z" fill="#BDBDBD"/>
</svg>
